<!-- icon666.com - MILLIONS OF FREE VECTOR ICONS --><svg id="Capa_1" enable-background="new 0 0 512 512" viewBox="0 0 512 512" xmlns="http://www.w3.org/2000/svg" xmlns:xlink="http://www.w3.org/1999/xlink"><linearGradient id="SVGID_1_" gradientUnits="userSpaceOnUse" x1="256" x2="256" y1="512" y2="0"><stop offset="0" stop-color="#ffc2cc"></stop><stop offset="1" stop-color="#fff2f4"></stop></linearGradient><linearGradient id="SVGID_2_" gradientUnits="userSpaceOnUse" x1="256" x2="256" y1="407" y2="105"><stop offset="0" stop-color="#ffa68d"></stop><stop offset="1" stop-color="#fd3a84"></stop></linearGradient><g><g><circle cx="256" cy="256" fill="url(#SVGID_1_)" r="256"></circle></g><g><g><path d="m184.941 264.882h44.412v-44.412c0-4.91 3.973-8.883 8.882-8.883h35.529c4.91 0 8.882 3.973 8.882 8.883v44.412h44.412c4.91 0 8.882-3.973 8.882-8.882v-71.282c-7.445 5.635-16.609 9.106-26.647 9.106-6.263 0-12.387-1.318-18.008-3.817-5.413 2.195-11.346 3.348-17.522 3.348-6.263 0-12.3-1.188-17.765-3.452-5.465 2.264-11.502 3.452-17.765 3.452-6.176 0-12.109-1.154-17.522-3.348-5.621 2.498-11.745 3.817-18.008 3.817-10.038 0-19.202-3.471-26.647-9.106v71.282c.003 4.91 3.976 8.882 8.885 8.882zm17.765-88.823c6.818 0 13.046-2.576 17.765-6.801 9.438 8.449 26.092 8.449 35.529 0 9.438 8.449 26.092 8.449 35.529 0 4.719 4.224 10.947 6.801 17.765 6.801 14.694 0 26.647-11.953 26.647-26.647v-17.765c0-14.694-11.953-26.647-26.647-26.647h-106.588c-14.694 0-26.647 11.953-26.647 26.647v17.765c0 14.694 11.953 26.647 26.647 26.647zm195.412 213.176h-20.149l23.098-39.997c3.886-6.705 5.933-14.373 5.933-22.18 0-24.487-19.916-44.412-44.412-44.412-21.453 0-39.387 15.283-43.514 35.53h-19.56c-3.541-17.375-17.253-31.089-34.632-34.631v-54.193h-17.765v54.193c-17.379 3.541-31.09 17.255-34.632 34.631h-19.56c-4.127-20.247-22.061-35.53-43.514-35.53-24.496 0-44.412 19.925-44.412 44.412 0 7.807 2.047 15.475 5.933 22.18l23.098 39.997h-20.149c-4.91 0-8.882 3.973-8.882 8.882s3.973 8.882 8.882 8.882h71.059c4.91 0 8.882-3.973 8.882-8.882s-3.973-8.882-8.882-8.882h-20.149l23.098-39.997c2.385-4.116 3.816-8.647 4.768-13.298h20.096c.952 4.65 2.382 9.182 4.768 13.298l23.098 39.997h-20.149c-4.91 0-8.882 3.973-8.882 8.882s3.973 8.882 8.882 8.882h71.059c4.91 0 8.882-3.973 8.882-8.882s-3.973-8.882-8.882-8.882h-20.149l23.098-39.997c2.385-4.116 3.816-8.647 4.768-13.298h20.096c.952 4.65 2.382 9.182 4.768 13.298l23.098 39.997h-20.149c-4.91 0-8.882 3.973-8.882 8.882s3.973 8.882 8.882 8.882h71.059c4.91 0 8.882-3.973 8.882-8.882s-3.973-8.882-8.882-8.882zm-248.706-53.294c-4.905 0-8.882-3.977-8.882-8.882 0-4.906 3.977-8.882 8.882-8.882s8.882 3.976 8.882 8.882c0 4.905-3.977 8.882-8.882 8.882zm106.588 0c-4.905 0-8.882-3.977-8.882-8.882 0-4.906 3.977-8.882 8.882-8.882s8.882 3.976 8.882 8.882c0 4.905-3.977 8.882-8.882 8.882zm106.588 0c-4.905 0-8.882-3.977-8.882-8.882 0-4.906 3.977-8.882 8.882-8.882s8.882 3.976 8.882 8.882c.001 4.905-3.977 8.882-8.882 8.882z" fill="url(#SVGID_2_)"></path></g></g></g></svg>